<svg id="Capa_1" fill="#FFFFFF" enable-background="new 0 0 510.638 510.638" height="512" viewBox="0 0 510.638 510.638" width="512" xmlns="http://www.w3.org/2000/svg"><path id="XMLID_459_" d="m97.524 456.319h30v50h-30z"/><path id="XMLID_460_" d="m169.262 456.319h30v50h-30z"/><path id="XMLID_461_" d="m241 456.319h30v50h-30z"/><path id="XMLID_462_" d="m312.738 456.319h30v50h-30z"/><path id="XMLID_463_" d="m384.476 456.319h30v50h-30z"/><path id="XMLID_464_" d="m0 96.843h56.681v30h-56.681z"/><path id="XMLID_465_" d="m0 168.581h56.681v30h-56.681z"/><path id="XMLID_466_" d="m0 240.319h56.681v30h-56.681z"/><path id="XMLID_467_" d="m0 312.057h56.681v30h-56.681z"/><path id="XMLID_469_" d="m0 383.794h56.681v30h-56.681z"/><path id="XMLID_470_" d="m455.319 96.843h55.319v30h-55.319z"/><path id="XMLID_471_" d="m455.319 168.581h55.319v30h-55.319z"/><path id="XMLID_472_" d="m455.319 240.319h55.319v30h-55.319z"/><path id="XMLID_473_" d="m455.319 312.057h55.319v30h-55.319z"/><path id="XMLID_474_" d="m455.319 383.794h55.319v30h-55.319z"/><path id="XMLID_475_" d="m97.524 4.319h30v50h-30z"/><path id="XMLID_476_" d="m169.262 4.319h30v50h-30z"/><path id="XMLID_477_" d="m241 4.319h30v50h-30z"/><path id="XMLID_478_" d="m312.738 4.319h30v50h-30z"/><path id="XMLID_482_" d="m384.476 4.319h30v50h-30z"/><path id="XMLID_493_" d="m362.999 150.795h-213.998v209.047h213.998zm-162.778 59.948h-.329c-8.284 0-15-6.716-15-15s6.716-15 15-15h.329c8.284 0 15 6.716 15 15s-6.716 15-15 15zm57.937 0h-.329c-8.284 0-15-6.716-15-15s6.716-15 15-15h.329c8.284 0 15 6.716 15 15s-6.716 15-15 15z"/><path id="XMLID_497_" d="m425.319 84.319h-338.638v342h338.638zm-32.32 305.523h-273.998v-269.047h273.998z"/></svg>